# xmcd
#
# Track frame offsets: 
#        180
#        11012
#        22698
#        35683
#        47049
#        60559
#        73648
#        88819
#        99173
#        112299
#        126114
#        137620
#        150285
#        164132
#        176033
#        190056
#        212964
#        226031
#        237394
#        251975
#        266506
#        279322
#        290543
#        304588
#
# Disc length: 4223 seconds
#
# Revision: 0
# Processed by: cddbd v1.5.2PL0 Copyright (c) Steve Scherf et al.
# Submitted via: ExactAudioCopy v0.99pb5
#
DISCID=54107d18
DTITLE=Various Artist - Blues Goes On Disc 8
DYEAR=1900
DGENRE=Blues
TTITLE0=Sonny Terry And Brownie Mc Ghee - Baby Let's Have Some Fun
TTITLE1=Brownie Mc Ghee - Dealing With The Devil
TTITLE2=Josh White - Low Cotton
TTITLE3=B.B. King - She's Dynamite
TTITLE4=John Lee Hooker - Drifting From Door To Door
TTITLE5=Sonny Terry - Blowing The Blues
TTITLE6=John Hurt - Frankie And Johnny
TTITLE7=John Lee Hooker - Feed Her All Night
TTITLE8=Big Boy Crudup - Hey Mama Everything's All Right
TTITLE9=Willie Dixon - If The Sea Was Whiskey
TTITLE10=Lightin' Hopkins - Can't Do Like You Used To
TTITLE11=Brownie Mc Ghee - Be Good To Me
TTITLE12=Leadbelly - Alabama Bound
TTITLE13=John Lee Hooker - Boggie Awhile
TTITLE14=Eddie James "Son" House Jr. - My Black Mama Part 1
TTITLE15=John Lee Hooker - Baby Don't Do Me Wrong
TTITLE16=Big Bull Broonzy - Bull Cow Blues
TTITLE17=Brownie Mc Ghee - Got To Find My Little Woman
TTITLE18=Bessie Smith - Cold In Hand Blues
TTITLE19=John Lee Hooker - Do The Boogie
TTITLE20=Brownie Mc Ghee And Blind Boy Fuller - Good - Bye Now
TTITLE21=Lowell Fulson - The Blues Is Killing Me
TTITLE22=Big Bill Broonzy - Worrying You Out Of My Mind (Part 1)
TTITLE23=John Lee Hooker - House Rent Boogie
EXTD=
EXTT0=
EXTT1=
EXTT2=
EXTT3=
EXTT4=
EXTT5=
EXTT6=
EXTT7=
EXTT8=
EXTT9=
EXTT10=
EXTT11=
EXTT12=
EXTT13=
EXTT14=
EXTT15=
EXTT16=
EXTT17=
EXTT18=
EXTT19=
EXTT20=
EXTT21=
EXTT22=
EXTT23=
PLAYORDER=
